<svg xmlns="http://www.w3.org/2000/svg" version="1.1" xmlns:xlink="http://www.w3.org/1999/xlink" viewBox="0 0 200 200"><rect width="200" height="200" fill="url('#gradient')"></rect><defs><linearGradient id="gradient" gradientTransform="rotate(34 0.5 0.5)"><stop offset="0%" stop-color="#f8a6ff"></stop><stop offset="100%" stop-color="#1f5dc9"></stop></linearGradient></defs><g><g fill="#000000" transform="matrix(2.2078157540120054,0,0,2.2078157540120054,10.618181319977452,116.3401798689437)" stroke="#ffffff" stroke-width="0.7"><path d="M8.41-3.78L8.41-3.78Q8.41-4.53 7.88-4.95Q7.34-5.37 6.01-5.82Q4.67-6.27 3.82-6.69L3.82-6.69Q1.05-8.05 1.05-10.42L1.05-10.42Q1.05-11.60 1.74-12.50Q2.43-13.41 3.69-13.91Q4.95-14.41 6.52-14.41L6.52-14.41Q8.06-14.41 9.27-13.87Q10.49-13.32 11.16-12.31Q11.84-11.30 11.84-10L11.84-10L8.42-10Q8.42-10.87 7.89-11.35Q7.35-11.83 6.45-11.83L6.45-11.83Q5.53-11.83 5.00-11.42Q4.46-11.02 4.46-10.39L4.46-10.39Q4.46-9.84 5.05-9.40Q5.63-8.96 7.11-8.48Q8.58-8.01 9.53-7.46L9.53-7.46Q11.84-6.13 11.84-3.80L11.84-3.80Q11.84-1.93 10.43-0.87Q9.02 0.20 6.57 0.20L6.57 0.20Q4.84 0.20 3.44-0.42Q2.04-1.04 1.33-2.12Q0.63-3.20 0.63-4.61L0.63-4.61L4.06-4.61Q4.06-3.47 4.65-2.92Q5.24-2.38 6.57-2.38L6.57-2.38Q7.42-2.38 7.92-2.75Q8.41-3.12 8.41-3.78ZM16.91-10.57L16.91 0L13.61 0L13.61-10.57L16.91-10.57ZM13.42-13.29L13.42-13.29Q13.42-13.99 13.93-14.44Q14.43-14.89 15.24-14.89Q16.05-14.89 16.56-14.44Q17.07-13.99 17.07-13.29Q17.07-12.59 16.56-12.14Q16.05-11.69 15.24-11.69Q14.43-11.69 13.93-12.14Q13.42-12.59 13.42-13.29ZM18.53-5.36L18.53-5.36Q18.53-7.87 19.61-9.32Q20.69-10.76 22.64-10.76L22.64-10.76Q24.05-10.76 25.02-9.65L25.02-9.65L25.02-15L28.32-15L28.32 0L25.36 0L25.20-1.13Q24.18 0.20 22.62 0.20L22.62 0.20Q20.73 0.20 19.63-1.25Q18.53-2.70 18.53-5.36ZM21.83-5.76L21.82-5.16Q21.82-2.34 23.46-2.34L23.46-2.34Q24.55-2.34 25.02-3.26L25.02-3.26L25.02-7.29Q24.57-8.22 23.48-8.22L23.48-8.22Q21.95-8.22 21.83-5.76L21.83-5.76ZM29.78-5.36L29.78-5.36Q29.78-7.87 30.86-9.32Q31.94-10.76 33.89-10.76L33.89-10.76Q35.30-10.76 36.27-9.65L36.27-9.65L36.27-15L39.57-15L39.57 0L36.61 0L36.45-1.13Q35.43 0.20 33.87 0.20L33.87 0.20Q31.98 0.20 30.88-1.25Q29.78-2.70 29.78-5.36ZM33.08-5.76L33.07-5.16Q33.07-2.34 34.71-2.34L34.71-2.34Q35.80-2.34 36.27-3.26L36.27-3.26L36.27-7.29Q35.82-8.22 34.73-8.22L34.73-8.22Q33.20-8.22 33.08-5.76L33.08-5.76ZM44.66-15L44.66-9.43Q45.71-10.76 47.35-10.76L47.35-10.76Q49.10-10.76 49.99-9.73Q50.88-8.69 50.90-6.67L50.90-6.67L50.90 0L47.60 0L47.60-6.59Q47.60-7.43 47.26-7.83Q46.91-8.22 46.09-8.22L46.09-8.22Q45.08-8.22 44.66-7.58L44.66-7.58L44.66 0L41.37 0L41.37-15L44.66-15ZM61.97 0L58.68 0Q58.51-0.32 58.37-0.95L58.37-0.95Q57.46 0.20 55.83 0.20L55.83 0.20Q54.34 0.20 53.29-0.71Q52.25-1.61 52.25-2.98L52.25-2.98Q52.25-4.70 53.52-5.58Q54.79-6.46 57.21-6.46L57.21-6.46L58.22-6.46L58.22-7.01Q58.22-8.47 56.96-8.47L56.96-8.47Q55.79-8.47 55.79-7.31L55.79-7.31L52.50-7.31Q52.50-8.85 53.80-9.80Q55.11-10.76 57.13-10.76Q59.15-10.76 60.32-9.78Q61.49-8.79 61.52-7.07L61.52-7.07L61.52-2.39Q61.54-0.94 61.97-0.17L61.97-0.17L61.97 0ZM56.62-2.15L56.62-2.15Q57.24-2.15 57.64-2.41Q58.05-2.68 58.22-3.01L58.22-3.01L58.22-4.70L57.27-4.70Q55.55-4.70 55.55-3.15L55.55-3.15Q55.55-2.71 55.85-2.43Q56.15-2.15 56.62-2.15ZM63.28-10.57L66.37-10.57L66.47-9.33Q67.57-10.76 69.49-10.76L69.49-10.76Q71.14-10.76 71.96-9.78Q72.77-8.79 72.80-6.81L72.80-6.81L72.80 0L69.50 0L69.50-6.67Q69.50-7.47 69.18-7.85Q68.86-8.22 68.01-8.22L68.01-8.22Q67.04-8.22 66.57-7.46L66.57-7.46L66.57 0L63.28 0L63.28-10.57ZM75.17-13.19L78.46-13.19L78.46-10.57L80.20-10.57L80.20-8.28L78.46-8.28L78.46-3.45Q78.46-2.85 78.67-2.62Q78.89-2.38 79.52-2.38L79.52-2.38Q80.01-2.38 80.34-2.44L80.34-2.44L80.34-0.09Q79.45 0.20 78.49 0.20L78.49 0.20Q76.79 0.20 75.98-0.61Q75.17-1.41 75.17-3.04L75.17-3.04L75.17-8.28L73.82-8.28L73.82-10.57L75.17-10.57L75.17-13.19Z"></path></g></g></svg>